<mxfile host="app.diagrams.net" modified="2024-07-01T01:29:12.330Z" agent="Mozilla/5.0 (Windows NT 10.0; Win64; x64) AppleWebKit/537.36 (KHTML, like Gecko) Chrome/126.0.0.0 Safari/537.36" etag="ha8ekG5f40q0m-9mBRQ3" version="24.6.4" type="github">
  <diagram name="Page-1" id="fmr2RqCdTDm2d43Hkljf">
    <mxGraphModel dx="1644" dy="454" grid="1" gridSize="10" guides="1" tooltips="1" connect="1" arrows="1" fold="1" page="1" pageScale="1" pageWidth="850" pageHeight="1100" math="0" shadow="0">
      <root>
        <mxCell id="0" />
        <mxCell id="1" parent="0" />
        <mxCell id="3x7UYinpKy81e7q4rY8--1" value="Start" style="ellipse;whiteSpace=wrap;html=1;fontFamily=Times New Roman;" vertex="1" parent="1">
          <mxGeometry x="330" y="10" width="110" height="80" as="geometry" />
        </mxCell>
        <mxCell id="3x7UYinpKy81e7q4rY8--3" value="" style="endArrow=none;html=1;rounded=0;" edge="1" parent="1">
          <mxGeometry width="50" height="50" relative="1" as="geometry">
            <mxPoint x="384.5" y="140" as="sourcePoint" />
            <mxPoint x="384.5" y="90" as="targetPoint" />
          </mxGeometry>
        </mxCell>
        <mxCell id="3x7UYinpKy81e7q4rY8--10" value="" style="edgeStyle=orthogonalEdgeStyle;rounded=0;orthogonalLoop=1;jettySize=auto;html=1;" edge="1" parent="1" source="3x7UYinpKy81e7q4rY8--4" target="3x7UYinpKy81e7q4rY8--9">
          <mxGeometry relative="1" as="geometry" />
        </mxCell>
        <mxCell id="3x7UYinpKy81e7q4rY8--4" value="&amp;nbsp;1. View Upcoming Bookings" style="rounded=0;whiteSpace=wrap;html=1;" vertex="1" parent="1">
          <mxGeometry x="240" y="140" width="300" height="60" as="geometry" />
        </mxCell>
        <mxCell id="3x7UYinpKy81e7q4rY8--7" value="" style="endArrow=none;html=1;rounded=0;entryX=1;entryY=0.5;entryDx=0;entryDy=0;" edge="1" parent="1" target="3x7UYinpKy81e7q4rY8--4">
          <mxGeometry width="50" height="50" relative="1" as="geometry">
            <mxPoint x="590" y="170" as="sourcePoint" />
            <mxPoint x="430" y="210" as="targetPoint" />
            <Array as="points">
              <mxPoint x="590" y="170" />
            </Array>
          </mxGeometry>
        </mxCell>
        <mxCell id="3x7UYinpKy81e7q4rY8--8" value="&#xa; Users can view scheduled appointments and bookings&#xa;&#xa;" style="whiteSpace=wrap;html=1;aspect=fixed;" vertex="1" parent="1">
          <mxGeometry x="600" y="170" width="130" height="130" as="geometry" />
        </mxCell>
        <mxCell id="3x7UYinpKy81e7q4rY8--12" value="" style="edgeStyle=orthogonalEdgeStyle;rounded=0;orthogonalLoop=1;jettySize=auto;html=1;" edge="1" parent="1" source="3x7UYinpKy81e7q4rY8--9">
          <mxGeometry relative="1" as="geometry">
            <mxPoint x="640" y="370" as="targetPoint" />
            <Array as="points">
              <mxPoint x="570" y="310" />
              <mxPoint x="570" y="370" />
              <mxPoint x="630" y="370" />
            </Array>
          </mxGeometry>
        </mxCell>
        <mxCell id="3x7UYinpKy81e7q4rY8--15" value="" style="edgeStyle=orthogonalEdgeStyle;rounded=0;orthogonalLoop=1;jettySize=auto;html=1;" edge="1" parent="1" source="3x7UYinpKy81e7q4rY8--9" target="3x7UYinpKy81e7q4rY8--14">
          <mxGeometry relative="1" as="geometry" />
        </mxCell>
        <mxCell id="3x7UYinpKy81e7q4rY8--9" value="&#xa; 2. Track Users via Tagged Links&#xa;&#xa;" style="whiteSpace=wrap;html=1;rounded=0;" vertex="1" parent="1">
          <mxGeometry x="240" y="280" width="300" height="60" as="geometry" />
        </mxCell>
        <mxCell id="3x7UYinpKy81e7q4rY8--13" value="&#xa;Monitor traffic and user behavior from tagged links.&#xa;&#xa;" style="whiteSpace=wrap;html=1;aspect=fixed;" vertex="1" parent="1">
          <mxGeometry x="640" y="340" width="120" height="120" as="geometry" />
        </mxCell>
        <mxCell id="3x7UYinpKy81e7q4rY8--16" value="" style="edgeStyle=orthogonalEdgeStyle;rounded=0;orthogonalLoop=1;jettySize=auto;html=1;" edge="1" parent="1" source="3x7UYinpKy81e7q4rY8--14">
          <mxGeometry relative="1" as="geometry">
            <mxPoint x="660" y="540" as="targetPoint" />
            <Array as="points">
              <mxPoint x="590" y="450" />
              <mxPoint x="590" y="520" />
              <mxPoint x="600" y="520" />
              <mxPoint x="600" y="530" />
              <mxPoint x="630" y="530" />
              <mxPoint x="630" y="540" />
            </Array>
          </mxGeometry>
        </mxCell>
        <mxCell id="3x7UYinpKy81e7q4rY8--20" value="" style="edgeStyle=orthogonalEdgeStyle;rounded=0;orthogonalLoop=1;jettySize=auto;html=1;" edge="1" parent="1" source="3x7UYinpKy81e7q4rY8--14" target="3x7UYinpKy81e7q4rY8--19">
          <mxGeometry relative="1" as="geometry" />
        </mxCell>
        <mxCell id="3x7UYinpKy81e7q4rY8--14" value="3. Write Session Notes" style="whiteSpace=wrap;html=1;rounded=0;" vertex="1" parent="1">
          <mxGeometry x="240" y="420" width="300" height="60" as="geometry" />
        </mxCell>
        <mxCell id="3x7UYinpKy81e7q4rY8--17" value="&#xa;Record session notes for each client interaction.&#xa;&#xa;" style="whiteSpace=wrap;html=1;aspect=fixed;" vertex="1" parent="1">
          <mxGeometry x="660" y="510" width="130" height="130" as="geometry" />
        </mxCell>
        <mxCell id="3x7UYinpKy81e7q4rY8--22" value="" style="edgeStyle=orthogonalEdgeStyle;rounded=0;orthogonalLoop=1;jettySize=auto;html=1;" edge="1" parent="1" source="3x7UYinpKy81e7q4rY8--19" target="3x7UYinpKy81e7q4rY8--21">
          <mxGeometry relative="1" as="geometry" />
        </mxCell>
        <mxCell id="3x7UYinpKy81e7q4rY8--24" value="" style="edgeStyle=orthogonalEdgeStyle;rounded=0;orthogonalLoop=1;jettySize=auto;html=1;" edge="1" parent="1" source="3x7UYinpKy81e7q4rY8--19" target="3x7UYinpKy81e7q4rY8--23">
          <mxGeometry relative="1" as="geometry" />
        </mxCell>
        <mxCell id="3x7UYinpKy81e7q4rY8--19" value="&#xa;4. Access Analytical Data&#xa;&#xa;" style="rounded=0;whiteSpace=wrap;html=1;" vertex="1" parent="1">
          <mxGeometry x="240" y="560" width="210" height="60" as="geometry" />
        </mxCell>
        <mxCell id="3x7UYinpKy81e7q4rY8--21" value="&lt;div&gt;&lt;b&gt;a. Session Frequency: Track session occurrence frequencies.&lt;/b&gt;&lt;/div&gt;&lt;div&gt;&lt;b&gt;&amp;nbsp;b. Monthly Turnover: Monitor monthly financial performance.&lt;/b&gt;&lt;/div&gt;&lt;div&gt;&lt;b&gt;&amp;nbsp;c. Other Insights: Gather additional relevant metrics.&lt;/b&gt;&lt;/div&gt;&lt;div&gt;&lt;br&gt;&lt;/div&gt;" style="rounded=0;whiteSpace=wrap;html=1;" vertex="1" parent="1">
          <mxGeometry x="500" y="660" width="240" height="160" as="geometry" />
        </mxCell>
        <mxCell id="3x7UYinpKy81e7q4rY8--26" value="" style="edgeStyle=orthogonalEdgeStyle;rounded=0;orthogonalLoop=1;jettySize=auto;html=1;" edge="1" parent="1" source="3x7UYinpKy81e7q4rY8--23">
          <mxGeometry relative="1" as="geometry">
            <mxPoint x="70" y="730" as="targetPoint" />
            <Array as="points">
              <mxPoint x="130" y="730" />
              <mxPoint x="130" y="730" />
            </Array>
          </mxGeometry>
        </mxCell>
        <mxCell id="3x7UYinpKy81e7q4rY8--29" value="" style="edgeStyle=orthogonalEdgeStyle;rounded=0;orthogonalLoop=1;jettySize=auto;html=1;exitX=0;exitY=0.75;exitDx=0;exitDy=0;" edge="1" parent="1" source="3x7UYinpKy81e7q4rY8--23">
          <mxGeometry relative="1" as="geometry">
            <mxPoint x="190" y="820" as="targetPoint" />
          </mxGeometry>
        </mxCell>
        <mxCell id="3x7UYinpKy81e7q4rY8--31" value="" style="edgeStyle=orthogonalEdgeStyle;rounded=0;orthogonalLoop=1;jettySize=auto;html=1;" edge="1" parent="1" source="3x7UYinpKy81e7q4rY8--23" target="3x7UYinpKy81e7q4rY8--30">
          <mxGeometry relative="1" as="geometry" />
        </mxCell>
        <mxCell id="3x7UYinpKy81e7q4rY8--23" value="&#xa;5. Handle Payments&#xa;&#xa;" style="rounded=0;whiteSpace=wrap;html=1;" vertex="1" parent="1">
          <mxGeometry x="170" y="700" width="235" height="60" as="geometry" />
        </mxCell>
        <mxCell id="3x7UYinpKy81e7q4rY8--25" value="&#xa;Collect and process payments securely&#xa;&#xa;" style="whiteSpace=wrap;html=1;rounded=0;" vertex="1" parent="1">
          <mxGeometry x="-87.5" y="700" width="157.5" height="100" as="geometry" />
        </mxCell>
        <mxCell id="3x7UYinpKy81e7q4rY8--28" value="&#xa; Deposit funds directly into client accounts.&#xa;&#xa;" style="whiteSpace=wrap;html=1;rounded=0;" vertex="1" parent="1">
          <mxGeometry x="20" y="820" width="190" height="110" as="geometry" />
        </mxCell>
        <mxCell id="3x7UYinpKy81e7q4rY8--30" value="&#xa;End&#xa;&#xa;" style="ellipse;whiteSpace=wrap;html=1;rounded=0;" vertex="1" parent="1">
          <mxGeometry x="247.5" y="830" width="80" height="80" as="geometry" />
        </mxCell>
      </root>
    </mxGraphModel>
  </diagram>
</mxfile>
